# xmcd
#
# Track frame offsets: 
#        150
#        15682
#        29261
#        42895
#        59060
#        75698
#        91480
#        107914
#        120829
#        138720
#
# Disc length: 2068 seconds
#
# Revision: 3
# Processed by: cddbd v1.5.2PL0 Copyright (c) Steve Scherf et al.
# Submitted via: ExactAudioCopy v1.3
#
DISCID=8208120a
DTITLE=Holly Dunn - Holly Dunn
DYEAR=1986
DGENRE=country
TTITLE0=Two Too Many
TTITLE1=Your Memory (Won't Let Go Of Me)
TTITLE2=Burnin' Wheel
TTITLE3=The Sweetest Love I Never Knew
TTITLE4=It'll Be All Right
TTITLE5=Daddy's Hands
TTITLE6=My Heart Holds On
TTITLE7=That's A Real Good Way To Get Yourself Loved
TTITLE8=Hideaway Heart
TTITLE9=Someone Carried You
EXTD=D2-71052\n1986 MTM Records
EXTT0=
EXTT1=
EXTT2=
EXTT3=
EXTT4=
EXTT5=
EXTT6=
EXTT7=
EXTT8=
EXTT9=
PLAYORDER=
